<svg width="1440" height="400" viewBox="0 0 1440 400" fill="none" xmlns="http://www.w3.org/2000/svg">
<g clip-path="url(#clip0_141_4063)">
<rect width="1440" height="400" fill="#FAFAFA"/>
<g style="mix-blend-mode:multiply">
<rect x="-4" width="1440" height="400" fill="url(#paint0_linear_141_4063)"/>
<rect x="-4" width="1440" height="400" fill="black" fill-opacity="0.1"/>
</g>
<g clip-path="url(#clip1_141_4063)">
<path d="M1486.24 15.2978C1381.25 90.2082 1281.1 132.045 1150.04 127.295C1040.45 123.327 1032.62 -21.1373 978.008 -88.2357C933.945 -142.365 847.795 -149.582 791.497 -114.958C729.739 -76.9817 698.414 -5.21865 641.92 38.7054C589.481 79.4785 516.11 143.347 444.805 109.454C377.623 77.5075 324.452 19.6791 262.1 -19.8307C139.4 -97.589 -14.384 -34.8267 -125.962 33.2088C-161.179 54.6844 -195.428 89.2912 -238.524 92.4758" stroke="white" stroke-miterlimit="10"/>
<path d="M1489.43 19.6215C1463.9 37.9402 1438.19 53.6575 1412.59 67.5109C1343.43 104.856 1272.42 126.779 1189.94 128.637C1178.23 128.894 1166.31 128.73 1154.13 128.157C1108.01 126.025 1079.98 98.9854 1058.68 63.5179C1032.09 19.243 1016.03 -38.1276 988.959 -76.9249C986.692 -80.1666 984.355 -83.2846 981.927 -86.2451C937.883 -139.99 852.769 -147.932 796.53 -114.834C735.092 -78.4143 703.177 -8.97363 646.74 33.6398C615.646 57.0287 577.41 88.3897 536.685 103.373C508.593 113.7 479.338 116.252 450.452 102.983C383.642 72.4187 330.653 17.0221 268.882 -20.3689C255.819 -28.2965 242.425 -34.6334 228.769 -39.5372C115.191 -80.0836 -15.1662 -22.0502 -116.388 32.8314C-138.51 44.8284 -160.756 59.2432 -184.721 71.122C-201.676 79.5598 -219.44 86.2272 -238.696 87.6253" stroke="white" stroke-miterlimit="10"/>
<path d="M1492.61 23.9339C1467.29 42.1979 1441.33 57.2687 1415.81 70.7724C1346.76 107.192 1275.74 128.685 1193.81 129.848C1182.14 129.991 1170.3 129.704 1158.23 129.008C1112.57 126.439 1084.72 99.4123 1063.33 64.1925C1036.62 20.2331 1020.12 -36.452 992.89 -75.0246C990.622 -78.2437 988.286 -81.3278 985.846 -84.2771C941.832 -137.626 857.643 -146.487 801.564 -114.732C740.344 -80.0512 707.939 -12.7399 651.559 28.5403C620.404 51.1939 582.289 81.7083 541.759 96.3996C513.805 106.536 484.741 109.168 456.076 96.4776C389.638 67.2846 336.842 14.3311 275.64 -20.9411C262.721 -28.4266 249.47 -34.4006 235.97 -38.9074C123.621 -76.4588 -4.43094 -16.9692 -106.836 32.4312C-130.594 43.8936 -154.728 55.6013 -180.768 66.772C-199.132 74.6546 -218.287 81.2756 -238.889 82.7407" stroke="white" stroke-miterlimit="10"/>
<path d="M1495.8 28.2576C1470.68 46.4782 1444.46 60.8912 1419.03 74.0566C1350.09 109.561 1279.05 130.602 1197.68 131.08C1186.06 131.112 1174.29 130.712 1162.32 129.881C1117.12 126.864 1089.46 99.8617 1067.97 64.8898C1041.16 21.246 1024.22 -34.7424 996.821 -73.0904C994.553 -76.2869 992.205 -79.3485 989.765 -82.2752C945.77 -135.229 862.562 -144.917 806.596 -114.585C745.641 -81.5521 712.802 -16.3244 656.379 23.4973C625.218 45.484 587.168 75.0722 546.844 89.4828C519.027 99.4281 490.19 102.085 461.711 90.0291C395.703 62.0832 343.031 11.6966 282.399 -21.4568C269.611 -28.5117 256.527 -34.0885 243.17 -38.221C132.003 -72.6309 5.88883 -12.1971 -97.2964 32.0761C-122.78 43.0144 -148.711 52.0385 -176.815 62.4672C-196.588 69.806 -217.134 76.3692 -239.095 77.89" stroke="white" stroke-miterlimit="10"/>
<path d="M1498.98 32.57C1474.07 50.7359 1447.6 64.5024 1422.23 77.318C1353.41 111.897 1282.36 132.678 1201.54 132.291C1189.96 132.232 1178.27 131.686 1166.4 130.72C1121.66 127.267 1094.17 100.266 1072.6 65.5644C1045.67 22.2247 1028.3 -33.0668 1000.74 -71.1902C998.461 -74.3529 996.113 -77.4032 993.684 -80.3072C949.72 -132.865 867.503 -143.38 811.641 -114.484C750.961 -83.098 717.61 -20.0451 661.21 18.3979C629.999 39.6721 592.059 68.3796 551.93 82.5094C524.251 92.2525 495.616 94.9905 467.358 83.5242C401.734 56.9155 349.163 9.15204 289.18 -22.0176C276.513 -28.6079 263.595 -33.8328 250.404 -37.5795C140.397 -68.8481 15.9181 -7.84587 -87.711 31.6761C-114.989 42.0784 -142.638 48.4309 -172.828 58.1175C-194.01 64.9124 -215.947 71.4179 -239.254 73.0057" stroke="white" stroke-miterlimit="10"/>
<path d="M1502.17 36.8937C1477.46 55.0049 1450.73 68.1248 1425.45 80.5908C1356.74 114.244 1285.68 134.618 1205.4 133.501C1193.88 133.341 1182.27 132.637 1170.5 131.571C1126.22 127.568 1098.91 100.693 1077.25 66.2391C1050.2 23.2148 1032.39 -31.3911 1004.68 -69.2898C1002.4 -72.4299 1000.04 -75.4464 997.614 -78.3391C953.669 -130.501 872.444 -141.844 816.686 -114.382C756.291 -84.6439 722.406 -23.7772 666.041 13.3098C634.78 33.8715 596.949 61.6983 557.026 75.5474C529.473 85.0995 501.053 87.9072 473.004 77.0419C407.765 51.7703 355.352 6.51756 295.961 -22.567C283.425 -28.704 270.663 -33.5659 257.627 -36.9269C148.779 -65.0429 25.656 -3.82498 -78.1483 31.2873C-107.299 41.1528 -136.576 44.8345 -168.852 53.779C-191.432 60.0414 -214.772 66.4778 -239.437 68.1325" stroke="white" stroke-miterlimit="10"/>
<path d="M1505.35 41.2061C1480.85 59.274 1453.87 71.736 1428.67 83.8637C1360.07 116.591 1288.99 136.569 1209.27 134.722C1197.79 134.461 1186.26 133.623 1174.59 132.433C1130.78 127.97 1103.62 101.131 1081.88 66.925C1054.73 24.2162 1036.47 -29.693 1008.6 -67.3671C1006.31 -70.4846 1003.96 -73.4784 1001.52 -76.3486C957.607 -128.115 877.374 -140.285 821.707 -114.257C761.599 -86.1673 727.179 -27.4755 670.849 8.23279C639.538 28.0819 601.817 55.0282 562.089 68.5964C534.673 77.9576 506.456 80.835 478.617 70.5592C413.761 46.6249 361.519 3.88288 302.709 -23.1167C290.304 -28.8118 277.686 -33.288 264.827 -36.2745C157.139 -61.2492 35.1482 -0.134093 -68.5969 30.8984C-99.6773 40.1927 -130.537 41.2493 -164.888 49.4517C-188.877 55.1702 -213.607 61.5489 -239.62 63.2707" stroke="white" stroke-miterlimit="10"/>
<path d="M1508.54 45.5185C1484.24 63.5317 1456.99 75.3471 1431.88 87.1252C1363.39 118.927 1292.3 138.497 1213.14 135.933C1201.71 135.559 1190.26 134.597 1178.69 133.283C1135.33 128.361 1108.36 101.557 1086.52 67.5996C1059.26 25.2063 1040.56 -28.0173 1012.53 -65.4668C1010.24 -68.5504 1007.88 -71.533 1005.44 -74.3806C961.557 -125.751 882.326 -138.737 826.741 -114.156C766.93 -87.7018 731.964 -31.2077 675.669 3.1333C644.308 22.2699 606.696 48.3355 567.175 61.623C539.896 70.7932 511.882 73.7403 484.253 64.0542C419.781 41.4571 367.697 1.23699 309.479 -23.6889C297.207 -28.9419 284.743 -33.0438 272.039 -35.6446C165.5 -57.4667 44.485 3.23891 -59.0451 30.4869C-92.0999 39.187 -124.497 37.6414 -160.934 45.0904C-186.322 50.2764 -212.465 56.5859 -239.824 58.3747" stroke="white" stroke-miterlimit="10"/>
<path d="M1511.71 49.8421C1487.61 67.8119 1460.15 79.0263 1435.09 90.3979C1366.79 121.421 1295.61 140.437 1217 137.143C1205.61 136.667 1194.23 135.571 1182.76 134.134C1139.88 128.764 1113.07 101.984 1091.14 68.2854C1063.76 26.1962 1044.56 -26.2633 1016.44 -63.5554C1014.14 -66.6052 1011.78 -69.5652 1009.35 -72.4014C965.484 -123.387 887.267 -137.19 831.763 -114.043C772.25 -89.2364 736.738 -34.9287 680.477 -1.9437C649.055 16.4803 611.564 41.6653 572.249 54.6721C545.108 63.6401 517.297 66.6681 489.889 57.5718C425.801 36.3118 373.886 -1.39748 316.238 -24.2385C304.097 -29.0496 291.788 -32.7771 279.24 -34.9921C173.826 -53.662 53.6658 6.36186 -49.4933 30.098C-84.5561 38.1697 -118.446 34.0562 -156.97 40.7518C-183.755 45.4054 -211.301 51.6457 -240.006 53.5015" stroke="white" stroke-miterlimit="10"/>
<path d="M1514.9 54.1545C1491 72.0696 1463.28 82.6374 1438.31 93.6707C1370.11 123.791 1298.92 142.377 1220.87 138.364C1209.53 137.776 1198.23 136.556 1186.86 134.984C1144.43 129.155 1117.81 102.411 1095.8 68.9602C1068.31 27.1865 1048.65 -24.5764 1020.4 -61.6549C1018.09 -64.6822 1015.73 -67.6195 1013.29 -70.4219C969.456 -121.012 892.242 -135.63 836.819 -113.93C777.603 -90.7481 741.534 -38.6495 685.32 -7.03173C653.847 10.6684 616.466 34.9841 577.346 47.7101C550.342 56.4872 522.734 59.5848 495.535 51.0781C431.82 31.1665 380.086 -4.04319 323.019 -24.7993C311.01 -29.1683 298.856 -32.5101 286.474 -34.3507C182.197 -49.8682 62.7692 9.23541 -39.9193 29.6979C-77.0237 37.0958 -112.384 30.4598 -152.994 36.402C-181.177 40.5343 -210.125 46.6943 -240.189 48.617" stroke="white" stroke-miterlimit="10"/>
<path d="M1518.08 58.4782C1494.39 76.3386 1466.42 86.2599 1441.52 96.9435C1373.45 126.149 1302.22 144.317 1224.74 139.586C1213.44 138.897 1202.22 137.541 1190.96 135.846C1149 129.558 1122.53 102.849 1100.44 69.6461C1072.84 28.1879 1052.73 -22.8895 1024.33 -59.732C1022.01 -62.7367 1019.65 -65.6402 1017.21 -68.4313C973.394 -118.625 897.206 -134.06 841.851 -113.805C782.945 -92.2599 746.307 -42.3591 690.139 -12.0973C658.605 4.89017 621.345 28.3367 582.431 40.7706C555.565 49.3568 528.16 52.5241 501.171 44.607C437.839 26.0326 386.275 -6.66636 329.789 -25.3262C317.912 -29.2533 305.901 -32.2095 293.685 -33.6755C190.522 -46.0295 67.0461 -5.9624 -30.3569 29.3318C-70.0949 28.9296 -106.323 26.8974 -149.018 32.0861C-178.6 35.686 -208.95 41.7768 -240.36 43.7552" stroke="white" stroke-miterlimit="10"/>
<path d="M1521.27 62.7906C1497.78 80.6077 1469.55 89.8824 1444.74 100.205C1376.78 128.507 1305.53 146.234 1228.61 140.785C1217.36 139.983 1206.22 138.504 1195.05 136.686C1153.56 129.949 1127.26 103.264 1105.07 70.3094C1077.35 29.1666 1056.81 -21.2139 1028.25 -57.8431C1025.93 -60.814 1023.56 -63.7062 1021.12 -66.4747C977.332 -116.273 902.158 -132.512 846.873 -113.715C788.287 -93.7943 751.069 -46.1028 694.947 -17.2082C663.363 -0.933276 626.213 21.6326 587.493 33.7857C560.765 42.1697 533.552 45.4178 506.784 38.0905C443.825 20.8645 392.453 -9.33485 336.536 -25.9098C324.791 -29.3949 312.924 -31.9769 300.875 -33.0571C198.826 -42.2363 76.3711 -3.83283 -20.8281 28.92C-62.489 27.2233 -100.295 23.2894 -145.076 27.7247C-176.067 30.792 -207.808 36.8138 -240.577 38.8592" stroke="white" stroke-miterlimit="10"/>
<path d="M1524.45 67.1143C1501.17 84.8767 1472.69 93.5049 1447.96 103.489C1380.12 130.877 1308.84 148.186 1232.48 142.018C1221.28 141.115 1210.21 139.501 1199.15 137.559C1158.11 130.363 1131.99 103.714 1109.72 71.018C1081.89 30.1795 1060.9 -19.493 1032.18 -55.9089C1029.85 -58.8573 1027.49 -61.7268 1025.04 -64.4728C981.27 -113.875 907.132 -130.919 851.906 -113.579C793.64 -95.2834 755.831 -49.8126 699.767 -22.2625C668.121 -6.71149 631.092 14.9851 592.578 26.8576C565.988 35.0506 538.977 38.3684 512.43 31.642C449.843 15.7644 398.665 -11.9352 343.317 -26.4254C331.715 -29.4684 319.992 -31.6647 308.109 -32.3705C207.162 -38.3749 85.7298 -1.64642 -11.2429 28.5653C-54.8153 25.5742 -94.2219 19.7496 -141.09 23.4316C-173.478 25.9776 -206.621 31.9191 -240.737 34.0314" stroke="white" stroke-miterlimit="10"/>
<path d="M1527.64 71.4267C1504.57 89.1345 1475.82 97.116 1451.18 106.751C1383.45 133.224 1312.15 150.103 1236.34 143.228C1225.18 142.212 1214.2 140.475 1203.22 138.398C1162.66 130.754 1136.71 104.118 1114.34 71.6812C1086.4 31.1581 1064.96 -17.8177 1036.1 -54.02C1033.77 -56.9458 1031.4 -59.7815 1028.96 -62.5161C985.22 -111.523 912.107 -129.371 856.939 -113.489C798.993 -96.8064 760.605 -53.5674 704.587 -27.3733C672.879 -12.5462 635.96 8.28107 597.653 19.8728C571.199 27.8749 544.38 31.2735 518.054 25.1256C455.84 10.5964 404.854 -14.6036 350.076 -27.0089C338.606 -29.6099 327.026 -31.4206 315.309 -31.7519C215.455 -34.5705 95.055 0.471883 -1.70255 28.1424C-47.1865 23.8569 -88.1825 16.1418 -137.136 19.059C-170.923 21.0725 -205.468 26.9449 -240.942 29.1241" stroke="white" stroke-miterlimit="10"/>
<path d="M1530.83 75.7504C1507.96 93.4148 1478.96 100.738 1454.39 110.024C1386.77 135.582 1315.47 152.02 1240.21 144.449C1229.1 143.332 1218.2 141.46 1207.32 139.26C1167.21 131.168 1141.44 104.556 1118.99 72.3672C1090.95 32.1597 1069.06 -16.1306 1040.04 -52.0971C1037.7 -54.989 1035.33 -57.8134 1032.89 -60.5254C989.181 -109.136 917.105 -127.789 861.984 -113.364C804.369 -98.2953 765.379 -57.2884 709.418 -32.4388C677.638 -18.3245 640.851 1.62239 602.75 12.9334C576.434 20.7333 549.818 24.2128 523.701 18.6546C461.848 5.48492 411.077 -17.2378 356.846 -27.5472C345.507 -29.7061 334.064 -31.5157 322.532 -31.088C223.841 -27.4196 104.414 2.63566 7.87157 27.765C-39.5352 22.185 -82.1204 12.568 -133.16 14.7317C-168.345 16.2241 -204.292 22.0161 -241.124 24.2622" stroke="white" stroke-miterlimit="10"/>
<path d="M1534.01 80.0628C1511.35 97.6726 1482.09 104.35 1457.6 113.296C1390.09 137.94 1318.77 153.949 1244.06 145.66C1233 144.43 1222.18 142.434 1211.4 140.11C1171.76 131.571 1146.14 104.983 1123.61 73.0417C1095.45 33.1383 1073.13 -14.4438 1043.95 -50.197C1041.61 -53.0663 1039.24 -55.8681 1036.78 -58.5577C993.096 -106.784 922.069 -126.219 866.995 -113.263C811.921 -100.307 770.119 -61.0323 714.215 -37.5385C682.374 -24.1481 645.707 -5.07048 607.801 5.95967C581.623 13.5687 555.198 17.1291 529.314 12.1493C467.834 0.328095 417.255 -19.9063 363.594 -28.1195C352.398 -29.8364 341.106 -30.876 329.722 -30.4583C232.049 -26.8598 113.728 4.77646 17.4007 27.3533C-31.9175 20.4676 -76.0923 8.97133 -129.218 10.3704C-165.812 11.3301 -203.15 17.0531 -241.329 19.3663" stroke="white" stroke-miterlimit="10"/>
<path d="M1537.2 84.3865C1514.74 101.953 1485.22 107.983 1460.82 116.569C1393.42 140.299 1322.08 155.866 1247.93 146.881C1236.92 145.55 1226.16 143.419 1215.5 140.972C1176.32 131.985 1150.88 105.421 1128.26 73.739C1099.98 34.151 1077.21 -12.7344 1047.89 -48.274C1045.54 -51.1208 1043.17 -53.8887 1040.71 -56.5669C997.057 -104.397 927.066 -124.614 872.039 -113.138C815.097 -101.262 774.881 -64.7647 719.046 -42.604C687.143 -29.9489 650.598 -11.7291 612.898 -0.979711C586.857 6.43839 560.624 10.0683 534.961 5.67831C473.841 -4.78335 423.478 -22.5405 370.375 -28.6463C359.311 -29.9212 348.162 -30.5752 336.944 -29.7831C240.352 -22.9649 123.075 6.95146 26.9744 26.9871C-24.2554 18.8071 -70.0308 5.42017 -125.231 6.05457C-163.223 6.49318 -201.964 12.1357 -241.5 14.5158" stroke="white" stroke-miterlimit="10"/>
<path d="M1540.38 88.6989C1518.13 106.211 1488.35 111.595 1464.03 119.831C1396.76 142.634 1325.38 157.772 1251.8 148.091C1240.83 146.648 1230.16 144.393 1219.6 141.823C1180.88 132.388 1155.62 105.848 1132.9 74.4137C1104.52 35.1412 1081.3 -11.0587 1051.82 -46.3624C1049.47 -49.1753 1047.09 -51.932 1044.64 -54.5876C1001.01 -102.022 932.063 -123.02 877.095 -113.025C820.495 -102.739 779.666 -68.5082 723.888 -47.692C691.913 -35.7609 655.499 -18.4103 618.006 -7.94162C592.102 -0.725727 566.061 2.99635 540.619 -0.815211C479.861 -9.91729 429.713 -25.1971 377.167 -29.207C366.247 -30.0398 355.23 -30.297 344.19 -29.1415C248.666 -19.0924 132.457 9.09286 36.56 26.5872C-16.5813 17.1128 -63.9576 1.8352 -121.244 1.70487C-160.634 1.62229 -200.777 7.18438 -241.66 9.62022" stroke="white" stroke-miterlimit="10"/>
<path d="M1543.57 93.0113C1521.52 110.468 1491.49 115.206 1467.25 123.103C1400.08 144.993 1328.69 159.689 1255.67 149.302C1244.75 147.745 1234.16 145.367 1223.68 142.662C1185.43 132.779 1160.34 106.263 1137.53 75.0769C1109.03 36.1199 1085.38 -9.38313 1055.74 -44.4735C1053.39 -47.2638 1050.99 -49.9868 1048.55 -52.631C1004.94 -99.6696 937.049 -121.438 882.117 -112.935C825.859 -104.228 784.405 -72.2747 728.696 -52.7916C696.659 -41.5844 660.367 -25.0918 623.068 -14.9152C597.302 -7.89023 571.464 -4.08723 546.232 -7.30916C485.835 -15.0403 435.914 -27.8654 383.915 -29.768C373.137 -30.1587 362.253 -30.0304 351.379 -28.5005C256.923 -15.1979 136.471 60.9638 46.1 26.1869C-6.25534 6.03829 -57.9184 -1.75007 -117.291 -2.63382C-158.091 -3.249 -199.635 2.24398 -241.865 4.74684" stroke="white" stroke-miterlimit="10"/>
<path d="M1546.75 97.335C1524.91 114.749 1494.62 118.828 1470.47 126.376C1403.41 147.34 1332 161.607 1259.54 150.523C1248.66 148.854 1238.15 146.364 1227.78 143.524C1189.99 133.193 1165.07 106.701 1142.19 75.7743C1113.57 37.1215 1089.48 -7.68473 1059.68 -42.5505C1057.32 -45.3183 1054.94 -48.0185 1052.48 -50.6402C1008.89 -97.2831 942.057 -119.811 887.161 -112.81C832.265 -105.81 789.168 -76.007 733.527 -57.8684C701.418 -47.3965 665.258 -31.7617 628.165 -21.8659C602.537 -15.0318 576.89 -11.148 551.89 -13.7914C491.854 -20.1517 442.148 -30.5221 390.696 -30.3174C380.05 -30.2774 369.31 -29.741 358.602 -27.8478C265.225 -11.2916 145.133 61.3016 55.6627 25.8094C1.53188 4.33372 -51.8681 -5.3126 -113.327 -6.96109C-155.524 -8.09745 -198.471 -2.68489 -242.048 -0.115005" stroke="white" stroke-miterlimit="10"/>
<path d="M1549.94 101.647C1528.3 119.006 1497.76 122.439 1473.69 129.638C1406.73 149.687 1335.31 163.501 1263.41 151.733C1252.58 149.963 1242.15 147.338 1231.87 144.375C1194.54 133.607 1169.79 107.128 1146.82 76.4489C1118.1 38.1116 1093.56 -5.99787 1063.61 -40.6502C1061.25 -43.3841 1058.85 -46.0731 1056.4 -48.6609C1012.84 -94.9079 947.065 -118.195 892.195 -112.697C836.633 -107.127 793.919 -79.7621 738.347 -62.9453C706.165 -53.2088 670.137 -38.4318 633.239 -28.8168C607.748 -22.1736 582.293 -18.1976 557.514 -20.2739C497.839 -25.2633 448.36 -33.1903 397.455 -30.8671C386.952 -30.385 376.344 -29.463 365.814 -27.1953C273.505 -7.35163 153.899 61.4934 65.2257 25.4206C9.29619 2.67412 -45.8061 -8.88636 -109.351 -11.2996C-152.946 -12.9571 -197.295 -7.62498 -242.23 -4.98818" stroke="white" stroke-miterlimit="10"/>
<path d="M1553.12 105.971C1531.69 123.287 1500.89 126.05 1476.9 132.922C1410.06 152.045 1338.62 165.419 1267.28 152.955C1256.49 151.072 1246.14 148.323 1235.97 145.236C1199.1 134.032 1174.53 107.566 1151.46 77.1349C1122.63 39.113 1097.66 -4.31092 1067.54 -38.7274C1065.17 -41.4388 1062.77 -44.0939 1060.32 -46.6704C1016.79 -92.5215 952.062 -116.556 897.228 -112.573C842.393 -108.59 798.67 -83.5059 743.167 -68.0222C710.912 -59.021 675.016 -45.1019 638.324 -35.7676C612.971 -29.3266 587.707 -25.2585 563.15 -26.7563C503.835 -30.3749 454.572 -35.8585 404.225 -31.4166C393.865 -30.5037 383.389 -29.1737 373.026 -26.5428C281.796 -3.41159 162.79 61.5507 74.7773 25.0317C17.0149 1.05933 -39.768 -12.336 -105.386 -15.6382C-150.392 -17.7266 -196.131 -12.5652 -242.413 -9.86139" stroke="white" stroke-miterlimit="10"/>
<path d="M1556.31 110.283C1535.08 127.544 1504.03 129.662 1480.12 136.183C1413.38 154.381 1341.94 167.313 1271.15 154.165C1260.41 152.17 1250.13 149.308 1240.06 146.087C1203.65 134.434 1179.25 107.993 1156.09 77.8094C1127.14 40.103 1101.74 -2.62406 1071.46 -36.8272C1069.09 -39.516 1066.69 -42.1485 1064.24 -44.7024C1020.73 -90.1691 957.07 -114.929 902.261 -112.471C847.406 -110.003 803.41 -87.2837 747.986 -73.1105C715.659 -64.8446 679.895 -51.7833 643.398 -42.7298C618.182 -36.4798 593.11 -32.3308 568.785 -33.2501C509.832 -35.4864 460.796 -38.5492 410.995 -31.9662C400.767 -30.6113 390.434 -28.8731 380.249 -25.8902C290.097 0.551161 171.807 61.5073 84.3397 24.6428C24.7098 -0.487862 -33.7178 -15.9099 -101.422 -19.9768C-147.826 -22.5977 -194.967 -17.5054 -242.607 -14.7347" stroke="white" stroke-miterlimit="10"/>
<path d="M1559.49 114.607C1538.47 131.813 1507.15 133.284 1483.34 139.456C1416.71 156.728 1345.25 169.219 1275.02 155.387C1264.32 153.279 1254.12 150.294 1244.15 146.938C1208.21 134.848 1183.99 108.408 1160.74 78.4954C1131.68 41.0932 1105.83 -0.937088 1075.4 -34.9156C1073.01 -37.5706 1070.61 -40.1918 1068.16 -42.7231C1024.68 -87.7939 962.067 -113.279 907.294 -112.358C852.792 -111.435 808.161 -91.0501 752.806 -78.1987C720.406 -70.6794 684.775 -58.4647 648.484 -49.6919C623.394 -43.6329 598.529 -39.8889 574.42 -39.7438C515.817 -39.3773 467.008 -41.24 417.765 -32.527C407.68 -30.7413 397.48 -28.595 387.46 -25.2489C298.388 4.51383 180.926 61.3519 93.9026 24.2427C32.3707 -1.99014 -27.667 -19.4951 -97.4458 -24.3266C-145.259 -27.4688 -193.791 -22.4568 -242.778 -19.619" stroke="white" stroke-miterlimit="10"/>
<path d="M1562.68 118.92C1541.86 136.082 1510.29 136.895 1486.56 142.729C1420.04 159.074 1348.56 171.125 1278.89 156.597C1268.24 154.376 1258.12 151.279 1248.25 147.788C1212.78 135.262 1188.71 108.835 1165.39 79.1702C1136.22 42.0834 1109.94 0.738803 1079.35 -33.0151C1076.96 -35.6475 1074.55 -38.2349 1072.1 -40.7549C1028.64 -85.4299 967.063 -113.98 912.35 -112.256C858.214 -110.539 812.935 -94.8275 757.648 -83.2866C725.176 -76.5028 689.677 -65.1458 653.592 -56.6537C628.64 -50.797 603.962 -46.4523 580.079 -46.2373C521.847 -45.698 473.243 -43.9305 424.558 -33.0876C414.616 -30.8712 404.559 -28.3167 394.695 -24.6075C306.712 8.48809 190.171 61.1185 103.477 23.8427C40.0201 -3.44731 -21.6049 -23.0914 -93.4699 -28.6651C-142.681 -32.3398 -192.615 -27.3969 -242.96 -24.5035" stroke="white" stroke-miterlimit="10"/>
<path d="M1565.86 123.243C1545.26 140.352 1513.42 140.518 1489.76 146.002C1423.35 161.421 1351.87 173.02 1282.75 157.819C1272.14 155.485 1262.11 152.264 1252.33 148.65C1217.31 135.699 1193.43 109.273 1170.01 79.856C1140.74 43.0847 1114.01 2.42559 1083.26 -31.0924C1080.87 -33.7022 1078.46 -36.267 1076 -38.7644C1032.57 -83.0436 972.072 -109.968 917.36 -112.132C863.553 -114.255 817.653 -98.5942 762.445 -88.3637C729.901 -82.3265 694.533 -71.8161 658.643 -63.6048C633.829 -57.9389 609.342 -53.5021 585.68 -52.7087C527.809 -50.7759 479.433 -46.6102 431.282 -33.6263C421.473 -30.9791 411.559 -28.0051 401.873 -23.9439C314.991 12.5072 206.057 38.1129 113.006 23.4649C42.593 12.3772 -15.5771 -26.6542 -89.5281 -32.9925C-140.138 -37.1884 -191.473 -32.326 -243.165 -29.3656" stroke="white" stroke-miterlimit="10"/>
<path d="M1569.05 127.556C1548.65 144.621 1516.56 144.118 1492.98 149.263C1426.67 163.746 1355.18 174.904 1286.62 159.029C1276.06 156.583 1266.1 153.25 1256.43 149.501C1221.86 136.113 1198.16 109.7 1174.66 80.5306C1145.27 44.0635 1118.1 4.11253 1087.19 -29.1921C1084.79 -31.7681 1082.38 -34.3103 1079.91 -36.7965C1036.52 -80.6797 977.068 -108.307 922.393 -112.031C868.928 -115.664 822.404 -102.383 767.265 -93.452C734.648 -88.1614 699.412 -78.4861 663.728 -70.5669C639.051 -65.092 614.756 -60.563 591.327 -59.2024C533.817 -55.8761 485.645 -49.3236 438.063 -34.187C428.397 -31.1091 418.615 -27.727 409.095 -23.3026C323.326 16.5155 215.231 39.4047 122.568 23.0648C50.1909 10.3092 -9.5269 -30.2394 -85.5526 -37.3424C-137.571 -42.0708 -190.298 -37.2774 -243.348 -34.25" stroke="white" stroke-miterlimit="10"/>
<path d="M1572.23 131.879C1552.04 148.89 1519.68 147.74 1496.2 152.547C1430 166.093 1358.5 176.81 1290.47 160.262C1279.96 157.703 1270.07 154.246 1260.5 150.374C1226.41 136.549 1202.88 110.149 1179.28 81.239C1149.77 45.0873 1122.18 5.82203 1091.1 -27.2581C1088.7 -29.8115 1086.28 -32.3312 1083.82 -34.7947C1040.44 -78.2822 982.042 -106.601 927.415 -111.884C874.303 -117.029 827.132 -106.138 772.073 -98.5063C739.383 -93.9737 704.28 -85.1337 668.791 -77.4953C644.251 -72.2225 620.148 -67.5902 596.939 -65.6624C539.79 -60.9313 491.834 -52.0033 444.81 -34.7028C435.276 -31.1942 425.649 -27.3925 416.284 -22.6164C331.65 20.5802 224.417 40.7193 132.108 22.7097C57.8119 8.21885 -3.49903 -33.7908 -81.6108 -41.6472C-135.028 -46.8969 -189.156 -42.1838 -243.564 -39.0896" stroke="white" stroke-miterlimit="10"/>
<path d="M1575.42 136.192C1555.43 153.147 1522.82 151.34 1499.41 155.809C1433.33 168.428 1361.8 178.682 1294.34 161.461C1283.88 158.789 1274.07 155.22 1264.6 151.202C1230.96 136.952 1207.61 110.553 1183.92 81.8911C1154.31 46.055 1126.27 7.47509 1095.04 -25.369C1092.64 -27.8998 1090.22 -30.3969 1087.75 -32.8379C1044.41 -75.9295 987.05 -104.928 932.46 -111.793C879.678 -118.427 831.896 -109.95 776.904 -103.606C744.142 -99.831 709.171 -91.8263 673.888 -84.4686C649.486 -79.3868 625.585 -74.6508 602.586 -72.1673C545.798 -66.0314 498.047 -54.728 451.592 -35.2749C442.19 -31.3355 432.717 -27.1142 423.519 -21.9863C340.019 24.5887 233.694 41.9668 141.683 22.3097C65.4905 6.02725 2.56299 -37.3759 -77.6234 -45.9969C-132.45 -51.7792 -187.969 -47.1351 -243.724 -43.9739" stroke="white" stroke-miterlimit="10"/>
<path d="M1578.61 140.504C1558.81 157.416 1525.95 154.951 1502.63 159.07C1436.64 170.753 1365.12 180.554 1298.21 162.671C1287.8 159.887 1278.07 156.194 1268.69 152.052C1235.51 137.366 1212.33 110.98 1188.56 82.5658C1158.84 47.0451 1130.38 9.15086 1098.97 -23.4688C1096.56 -25.9657 1094.14 -28.4402 1091.67 -30.8699C1048.34 -73.577 992.035 -103.244 937.493 -111.691C882.951 -120.139 836.636 -113.75 781.724 -108.705C748.89 -105.688 714.05 -98.519 678.962 -91.4421C654.697 -86.5512 630.988 -81.7231 608.222 -78.6724C551.794 -71.1204 504.248 -57.4528 458.362 -35.847C449.103 -31.4882 439.773 -26.8361 430.73 -21.3563C348.377 28.6198 242.993 43.1919 151.245 21.8982C73.1918 3.77935 8.62475 -40.9723 -73.659 -50.3581C-129.883 -56.6616 -186.816 -52.0981 -243.918 -48.8698" stroke="white" stroke-miterlimit="10"/>
<path d="M1581.79 144.828C1562.2 161.685 1529.09 158.562 1505.85 162.355C1439.97 173.088 1368.44 182.449 1302.08 163.904C1291.71 161.007 1282.06 157.202 1272.79 152.925C1240.06 137.813 1217.06 111.429 1193.21 83.263C1163.36 48.0465 1134.47 10.8378 1102.9 -21.5459C1100.49 -24.0202 1098.06 -26.4722 1095.59 -28.8793C1052.29 -71.1906 997.008 -101.527 942.537 -111.567C890.426 -121.179 841.398 -117.539 786.554 -113.771C753.648 -111.512 718.94 -105.178 684.058 -98.3815C659.931 -93.6815 636.413 -88.7499 613.868 -85.1434C557.812 -76.1752 510.449 -60.155 465.132 -36.3853C456.004 -31.5957 446.829 -26.5241 437.953 -20.6924C356.769 32.6738 252.348 44.4515 160.808 21.5207C80.916 1.50905 14.6751 -44.5461 -69.6835 -54.674C-127.306 -61.51 -185.641 -57.0155 -244.089 -53.7202" stroke="white" stroke-miterlimit="10"/>
<path d="M1584.98 149.14C1565.59 165.954 1532.21 162.173 1509.07 165.616C1443.3 175.413 1371.77 184.321 1305.95 165.103C1295.64 162.094 1286.05 158.176 1276.89 153.765C1244.62 138.227 1221.8 111.845 1197.85 83.9377C1167.9 49.0367 1138.57 12.5136 1106.83 -19.6456C1104.41 -22.0974 1101.98 -24.5268 1099.52 -26.8999C1056.24 -68.8154 1001.99 -99.8091 947.582 -111.454C895.79 -122.533 846.161 -121.339 791.385 -118.859C758.406 -117.358 723.83 -111.859 689.144 -105.344C665.154 -100.846 641.839 -95.7994 619.504 -91.6371C563.82 -81.2527 516.639 -62.8799 471.902 -36.9461C462.906 -31.7259 453.886 -26.2346 445.165 -20.0512C365.16 36.7278 261.727 45.6773 170.371 21.1206C88.675 -0.828775 20.7256 -48.1313 -65.7076 -59.0238C-124.739 -66.3811 -184.465 -61.9669 -244.272 -58.616" stroke="white" stroke-miterlimit="10"/>
<path d="M1588.16 153.464C1568.98 170.223 1535.34 165.784 1512.28 168.889C1446.61 177.748 1375.09 186.204 1309.82 166.324C1299.55 163.191 1290.04 159.161 1280.98 154.615C1249.15 138.652 1226.52 112.272 1202.48 84.6123C1172.42 50.0267 1142.72 14.1333 1110.76 -17.734C1108.34 -20.1632 1105.91 -22.5587 1103.44 -24.9206C1060.19 -66.4402 1006.97 -98.0916 952.615 -111.341C901.142 -123.897 850.913 -125.151 796.205 -123.936C763.165 -123.204 728.71 -118.529 694.229 -112.294C670.377 -107.987 647.253 -102.838 625.139 -98.1083C569.827 -86.2963 522.818 -65.5823 478.672 -37.4844C469.809 -31.8447 460.943 -25.9226 452.377 -19.3873C373.563 40.8045 271.151 46.9149 179.922 20.743C96.4571 -3.20027 26.7652 -51.694 -61.7541 -63.3512C-122.184 -71.2409 -183.312 -66.8959 -244.465 -63.478" stroke="white" stroke-miterlimit="10"/>
<path d="M1591.35 157.776C1572.37 174.481 1538.48 169.384 1515.5 172.162C1449.94 180.073 1378.41 188.077 1313.69 167.546C1303.47 164.3 1294.03 160.158 1285.07 155.477C1253.7 139.089 1231.25 112.698 1207.13 85.2983C1176.95 51.0281 1146.81 15.8202 1114.69 -15.8224C1112.27 -18.2291 1109.83 -20.602 1107.36 -22.9413C1064.14 -64.065 1011.93 -96.3629 957.648 -111.228C906.482 -125.24 855.676 -128.963 801.024 -129.024C767.912 -129.061 733.589 -125.21 699.314 -119.256C675.6 -115.141 652.678 -109.887 630.786 -104.602C575.845 -91.3625 529.007 -68.3072 485.453 -38.0338C476.721 -31.9635 468.01 -25.6217 459.611 -18.7346C382.011 44.859 280.642 48.1417 189.507 20.3544C104.318 -5.61627 32.8494 -55.2788 -57.756 -67.6895C-119.595 -76.1005 -182.114 -71.8358 -244.625 -68.3509" stroke="white" stroke-miterlimit="10"/>
<path d="M1594.53 162.1C1575.76 178.761 1541.6 172.961 1518.72 175.435C1453.26 182.295 1381.74 189.949 1317.56 168.756C1307.38 165.398 1298.02 161.143 1289.16 156.328C1258.25 139.525 1235.97 113.125 1211.77 85.9729C1181.49 52.007 1150.9 17.4959 1118.63 -13.9221C1116.2 -16.2948 1113.75 -18.6453 1111.28 -20.9733C1068.08 -61.7013 1016.88 -94.6343 962.681 -111.126C911.822 -126.604 860.428 -132.785 805.844 -134.112C772.671 -134.919 738.468 -131.88 704.389 -126.219C680.812 -122.305 658.093 -116.925 636.41 -111.096C581.853 -96.4287 535.163 -71.0324 492.212 -38.5947C483.612 -32.0937 475.067 -25.3322 466.811 -18.0934C390.437 48.9133 290.145 49.3574 199.048 19.9541C107.95 -9.44921 38.8773 -58.8642 -53.8141 -72.0396C-117.051 -80.9831 -180.972 -76.7875 -244.83 -73.2356" stroke="white" stroke-miterlimit="10"/>
<path d="M1597.72 166.413C1579.15 183.019 1544.74 176.573 1521.92 178.696C1456.57 184.631 1385.05 191.81 1321.42 169.966C1311.29 166.496 1302 162.128 1293.25 157.178C1262.78 139.95 1240.7 113.552 1216.4 86.6588C1186 53.0084 1154.98 19.1941 1122.55 -12.0106C1120.11 -14.3609 1117.67 -16.6886 1115.19 -18.9941C1072.02 -59.3262 1021.81 -92.8946 967.703 -111.013C917.14 -127.947 865.18 -136.608 810.653 -139.2C777.408 -140.776 743.336 -138.562 709.463 -133.181C686.023 -129.458 663.507 -123.975 642.035 -117.59C587.86 -101.484 541.32 -73.7576 498.971 -39.1557C490.492 -32.2354 482.124 -25.0428 474.012 -17.4523C398.874 52.9677 299.694 50.5734 208.6 19.5539C120.043 -10.6065 44.9168 -62.4494 -49.8492 -76.3895C-114.484 -85.8542 -179.807 -81.739 -245.024 -78.1202" stroke="white" stroke-miterlimit="10"/>
<path d="M1600.9 170.736C1582.54 187.288 1547.87 180.195 1525.14 181.98C1459.9 186.989 1388.41 193.603 1325.29 171.199C1315.22 167.593 1305.98 163.147 1297.34 158.051C1267.29 140.443 1245.42 114.001 1221.03 87.356C1190.52 54.021 1159.06 20.8922 1126.48 -10.0764C1124.04 -12.4041 1121.59 -14.7093 1119.12 -16.9921C1075.97 -56.9397 1026.76 -91.1321 972.748 -110.877C922.469 -129.255 869.954 -140.397 815.484 -144.255C782.177 -146.611 748.227 -145.209 714.548 -140.109C691.246 -136.577 668.932 -130.979 647.67 -124.049C593.879 -106.505 547.408 -76.5286 505.729 -39.6827C497.371 -32.3544 489.169 -24.7196 481.223 -16.7659C407.344 57.0676 309.287 51.8464 218.151 19.1988C127.962 -13.1011 50.956 -66.0008 -45.8849 -80.6829C-111.929 -90.6802 -178.643 -86.634 -245.206 -82.9482" stroke="white" stroke-miterlimit="10"/>
<path d="M1604.09 175.049C1585.94 191.557 1551.01 183.806 1528.36 185.242C1463.23 189.325 1391.72 195.509 1329.16 172.398C1319.13 168.68 1309.98 164.11 1301.44 158.879C1271.85 140.834 1250.16 114.405 1225.68 88.008C1195.06 54.9886 1163.15 22.5566 1130.41 -8.19875C1127.96 -10.4926 1125.5 -12.7752 1123.04 -15.0467C1079.92 -54.5985 1031.69 -89.415 977.781 -110.798C927.787 -130.632 874.729 -144.333 820.315 -149.377C786.948 -152.559 753.117 -151.924 719.645 -147.105C696.48 -143.775 674.38 -138.028 653.328 -130.577C599.953 -111.525 553.632 -79.2419 512.522 -40.2772C504.296 -32.507 496.282 -24.4522 488.458 -16.1584C415.972 61.2028 318.948 53.0409 227.736 18.7763C135.949 -15.7082 57.0404 -69.6083 -41.8978 -85.0552C-109.34 -95.5736 -177.456 -91.6079 -245.377 -87.8664" stroke="white" stroke-miterlimit="10"/>
<path d="M1607.27 179.372C1589.33 195.826 1554.14 187.429 1531.58 188.515C1466.57 191.672 1395.04 197.415 1333.03 173.62C1288.62 156.583 1262 122.424 1230.32 88.7053C1199.58 55.99 1167.24 24.2549 1134.34 -6.27586C1089.26 -48.0945 1039.69 -86.3366 982.814 -110.674C902.52 -145.033 812.104 -165.964 724.719 -154.044C631.41 -141.319 556.734 -84.5038 495.67 -15.4945C424.32 65.1434 328.621 54.292 237.288 18.3987C143.937 -18.2926 63.0797 -73.171 -37.9331 -89.3825C-106.785 -100.434 -176.292 -96.5368 -245.56 -92.7283" stroke="white" stroke-miterlimit="10"/>
<path d="M1611.4 171.836C1593.61 188.19 1558.99 180.318 1536.65 181.677C1472.42 185.474 1401.7 191.665 1340.17 168.914C1296.16 152.604 1269.46 119.541 1237.82 86.806C1207.07 55.0513 1175.04 23.8276 1141.93 -5.72159C1119.39 -25.8398 1096.21 -45.9976 1071.15 -63.2109C1044.48 -81.6594 1015.55 -97.3703 985.506 -109.395C909.734 -139.723 828.038 -156.53 745.634 -148.759C740.063 -148.233 734.491 -147.593 728.93 -146.841C692.209 -141.858 658.227 -130.668 626.941 -114.798C578.552 -90.3774 536.33 -54.8249 498.874 -14.6293C466.797 20.031 429.923 37.0609 390.62 42.4045C342.13 49.0219 290.192 37.8289 239.849 19.1225C174.972 -4.98156 116.362 -37.8456 52.4354 -60.7317C25.1014 -70.5395 -3.22091 -78.6268 -33.3376 -83.4185C-101.75 -94.3186 -170.956 -91.1313 -239.531 -87.6783" stroke="white" stroke-miterlimit="10"/>
<path d="M1615.53 164.312C1597.88 180.554 1563.85 173.218 1541.72 174.839C1478.28 179.265 1408.36 185.916 1347.32 164.22C1303.71 148.637 1276.92 116.68 1245.31 84.9292C1214.56 54.1352 1182.81 23.4453 1149.53 -5.15601C1126.15 -25.2478 1102.51 -46.1557 1076.57 -63.3317C1049.12 -81.5047 1018.83 -96.6852 988.221 -108.105C911.89 -136.596 832.536 -149.809 749.902 -141.577C744.32 -141.028 738.748 -140.378 733.176 -139.625C696.444 -134.665 662.32 -124.053 630.951 -109.076C582.403 -85.9008 539.838 -52.4198 502.113 -13.7638C469.732 19.4131 432.841 35.8099 393.267 41.0832C344.609 47.5974 292.606 37.4097 242.422 19.8577C178.051 -2.67073 120.07 -33.7771 56.5293 -55.5295C29.3947 -64.8721 1.21718 -72.7094 -28.7417 -77.4432C-96.7251 -88.2039 -165.608 -85.7031 -233.49 -82.6168" stroke="white" stroke-miterlimit="10"/>
<path d="M1619.66 156.776C1602.16 172.918 1568.71 166.163 1546.78 167.989C1484.13 173.225 1415.01 180.154 1354.45 159.503C1311.25 144.658 1284.36 113.786 1252.81 83.0185C1222.04 53.1852 1190.55 23.0514 1157.13 -4.61304C1132.9 -24.6786 1108.84 -46.3814 1081.99 -63.4752C1053.79 -81.4288 1022.12 -96.0114 990.925 -106.849C914.057 -133.524 837.035 -143.123 754.148 -134.43C748.565 -133.847 742.982 -133.196 737.398 -132.444C700.644 -127.507 666.379 -117.507 634.95 -103.4C586.222 -81.5262 543.414 -49.9802 505.33 -12.9324C472.702 18.8068 435.738 34.5248 395.904 39.728C347.089 46.139 295.008 36.9566 244.995 20.5477C181.13 -0.405089 123.767 -29.754 60.6234 -50.3838C33.6883 -59.2499 5.65573 -66.8486 -24.134 -71.5243C-91.6774 -82.1454 -160.249 -80.3426 -227.437 -77.6118" stroke="white" stroke-miterlimit="10"/>
<path d="M1623.79 149.252C1606.45 165.282 1573.56 159.086 1551.86 161.152C1489.99 167.072 1421.66 174.405 1361.6 154.797C1318.8 140.679 1291.82 110.914 1260.3 81.1305C1229.53 52.2578 1198.25 22.6911 1164.73 -4.05876C1139.62 -24.0982 1115.17 -46.6071 1087.4 -63.6075C1059.62 -80.6078 1025.4 -95.3376 993.617 -105.57C916.246 -130.453 841.511 -136.414 758.382 -127.259C752.8 -126.654 747.205 -125.981 741.61 -125.24C704.845 -120.326 670.415 -110.926 638.937 -97.6904C590.017 -77.1179 546.978 -47.518 508.535 -12.0785C475.671 18.2344 438.623 33.2735 398.529 38.3952C349.545 44.703 297.422 36.5262 247.556 21.2602C184.221 1.87193 127.452 -25.6971 64.7062 -45.2044C37.9705 -53.6052 10.0826 -60.9539 -19.5493 -65.5717C-86.6642 -76.042 -154.924 -74.9485 -221.419 -72.5732" stroke="white" stroke-miterlimit="10"/>
<path d="M1627.92 141.716C1610.73 157.634 1578.42 151.986 1556.93 154.314C1495.86 160.909 1428.32 168.655 1368.76 150.091C1326.37 136.701 1299.35 107.964 1267.81 79.2312C1236.26 50.4985 1205.94 22.3533 1172.34 -3.5044C1146.35 -23.5066 1121.52 -46.8213 1092.83 -63.7395C1063.13 -81.2432 1028.72 -94.6749 996.332 -104.291C918.459 -127.404 846.021 -129.694 762.639 -120.089C757.045 -119.45 751.451 -118.777 745.855 -118.025C709.068 -113.133 674.496 -104.345 642.947 -91.9691C593.846 -72.698 550.576 -45.0556 511.774 -11.2017C478.674 17.6736 441.53 32.0337 401.177 37.0853C352.035 43.2899 299.846 36.1185 250.129 22.0067C187.322 4.18298 131.16 -21.6174 68.7998 -40.0022C42.2636 -47.9378 14.5206 -55.0366 -14.9422 -59.585C-81.6172 -69.9157 -149.565 -69.5089 -215.367 -67.5004" stroke="white" stroke-miterlimit="10"/>
<path d="M1632.05 134.191C1615 150.009 1583.28 144.909 1562 147.476C1501.72 154.756 1434.93 163.04 1375.91 145.386C1333.89 132.824 1306.82 105.07 1275.31 77.3432C1244.59 50.3134 1213.6 22.0491 1179.94 -2.95004C1153.05 -22.9151 1127.88 -47.0468 1098.26 -63.8829C1067.82 -81.1784 1032.04 -94.0234 999.047 -103.023C920.706 -124.388 850.532 -122.996 766.897 -112.941C761.302 -112.28 755.696 -111.584 750.09 -110.843C713.291 -105.974 678.555 -97.798 646.957 -86.2929C597.653 -68.3348 554.174 -42.6271 515.002 -10.3702C481.666 17.0788 444.437 30.7487 403.825 35.7301C354.515 41.8315 302.294 35.6544 252.713 22.6967C190.447 6.4377 134.833 -17.4475 72.9053 -34.8451C46.5566 -42.2478 18.9703 -49.1643 -10.3346 -53.6549C-76.581 -63.8461 -144.206 -64.1371 -209.314 -62.484" stroke="white" stroke-miterlimit="10"/>
<path d="M1636.18 126.655C1619.29 142.362 1588.13 137.809 1567.07 140.627C1507.58 148.581 1441.58 157.301 1383.04 140.68C1341.43 128.857 1314.28 102.175 1282.8 75.4437C1251.32 48.7122 1221.22 21.7445 1187.53 -2.39587C1159.73 -22.3239 1134.21 -47.2725 1103.66 -64.0153C1072.48 -81.0913 1035.34 -93.3721 1001.73 -101.744C922.919 -121.385 854.997 -116.287 771.131 -105.771C765.525 -105.087 759.919 -104.38 754.302 -103.639C717.48 -98.7933 682.592 -91.2287 650.945 -80.5831C601.449 -63.9265 557.761 -40.1647 518.219 -9.5162C484.658 16.4954 447.334 29.4974 406.462 34.3974C356.994 40.407 304.73 35.2016 255.287 23.4206C193.561 8.70363 138.53 -13.3679 76.9882 -29.6656C50.8388 -36.5918 23.3976 -43.2697 -5.74941 -47.7023C-71.5559 -57.7426 -138.881 -58.7317 -203.296 -57.4454" stroke="white" stroke-miterlimit="10"/>
<path d="M1640.32 119.131C1623.58 134.737 1593 130.732 1572.15 133.8C1513.45 142.439 1448.25 151.585 1390.2 135.986C1348.98 124.912 1321.76 99.3037 1290.3 73.5671C1258.85 47.8305 1228.82 21.485 1195.14 -1.83019C1166.41 -21.71 1140.57 -47.4866 1109.09 -64.136C1077.18 -81.0039 1038.67 -92.7205 1004.44 -100.465C925.188 -118.392 859.507 -109.566 775.388 -98.6009C769.782 -97.8827 764.165 -97.1645 758.536 -96.4352C721.703 -91.612 686.651 -84.6704 654.955 -74.873C605.256 -59.5294 561.37 -37.7022 521.446 -8.6508C487.672 15.9234 450.241 28.2463 409.098 33.0648C359.461 38.9711 307.178 34.7601 257.848 24.1331C196.685 10.9584 142.215 -9.29966 81.0706 -24.4862C55.1206 -30.9358 27.8242 -37.3637 -1.15359 -41.7496C-66.5315 -51.6504 -133.533 -53.3374 -197.255 -52.4066" stroke="white" stroke-miterlimit="10"/>
<path d="M1644.45 111.595C1627.86 127.089 1597.86 123.632 1577.22 126.951C1519.32 136.264 1454.91 145.836 1397.35 131.269C1356.53 120.933 1329.22 96.398 1297.81 71.6565C1267.09 47.4636 1236.41 21.2141 1202.75 -1.28713C1173.08 -21.1189 1146.93 -47.7347 1114.51 -64.2795C1081.87 -80.9392 1042.01 -92.0915 1007.15 -99.1977C927.458 -115.444 864.006 -102.869 779.634 -91.442C774.028 -90.7011 768.399 -89.9718 762.758 -89.2313C725.904 -84.4308 690.687 -78.1011 658.942 -69.1745C609.04 -55.1438 564.968 -35.2624 524.652 -7.8082C490.664 15.3399 453.126 26.9724 411.724 31.7207C361.929 37.5239 309.614 34.296 260.41 24.8456C199.81 13.2131 145.901 -5.23143 85.1535 -19.318C59.4028 -25.2912 32.2513 -31.4804 3.43128 -35.797C-61.5068 -45.547 -128.196 -47.9432 -191.225 -47.3679" stroke="white" stroke-miterlimit="10"/>
<path d="M1648.57 104.071C1632.13 119.464 1602.72 116.544 1582.3 120.113C1525.19 130.089 1461.56 140.108 1404.5 126.564C1364.09 116.977 1336.7 93.5039 1305.31 69.7686C1274.59 46.5252 1244 20.9884 1210.35 -0.732727C1179.74 -20.5052 1153.29 -47.9714 1119.94 -64.4115C1086.57 -80.8631 1045.35 -91.4625 1009.86 -97.9187C929.74 -112.507 868.504 -96.1594 783.891 -84.2716C778.273 -83.4969 772.644 -82.7563 767.004 -82.0271C730.138 -77.2494 694.757 -71.5428 662.963 -63.4643C612.858 -50.7466 568.611 -32.7995 527.902 -6.94257C493.701 14.7682 456.044 25.7327 414.394 30.3997C364.431 36.0996 312.107 33.8437 263.016 25.5698C202.98 15.4569 149.631 -1.15148 89.2809 -14.1268C63.7296 -19.6234 36.7231 -25.574 8.07224 -29.8326C-56.4372 -39.4431 -122.815 -42.526 -185.15 -42.3174" stroke="white" stroke-miterlimit="10"/>
<path d="M1652.7 96.5349C1636.42 111.817 1607.58 109.444 1587.36 113.264C1531.04 123.903 1468.2 134.37 1411.64 121.847C1371.63 112.999 1344.14 90.6095 1312.8 67.8578C1282.07 45.5638 1251.53 20.7622 1217.94 -0.201172C1186.36 -19.8919 1159.63 -48.231 1125.35 -64.5663C1091.25 -80.821 1048.68 -90.8561 1012.56 -96.6624C932.033 -109.604 873.003 -89.4616 788.137 -77.1239C782.519 -76.3267 776.878 -75.5749 771.227 -74.8457C734.338 -70.0908 698.793 -64.9961 666.962 -57.7769C616.654 -46.3722 572.232 -30.3595 531.118 -6.11116C496.715 14.1736 458.94 24.4476 417.019 29.0443C366.899 34.6411 314.555 33.3571 265.567 26.2709C206.116 17.6666 153.317 2.89415 93.3526 -8.97C68.0006 -13.9902 41.1389 -19.7021 12.6459 -23.9027C-51.4235 -33.3736 -117.49 -37.1545 -179.132 -37.3014" stroke="white" stroke-miterlimit="10"/>
<path d="M1656.83 89.0103C1640.7 104.181 1612.43 102.356 1592.43 106.437C1536.91 117.75 1474.86 128.642 1418.79 117.164C1379.17 109.054 1351.6 87.7377 1320.3 65.9924C1289.58 44.6479 1259.07 20.5926 1225.55 0.387123C1192.03 -19.8183 1166 -48.4337 1130.77 -64.6646C1095.93 -80.7224 1052.01 -90.2158 1015.27 -95.3609C934.326 -106.69 877.502 -82.7299 792.394 -69.931C786.776 -69.0998 781.124 -68.3368 775.461 -67.6078C738.561 -62.8756 702.841 -58.404 670.961 -52.0444C620.438 -41.9526 575.864 -27.8628 534.335 -5.22325C499.741 13.6356 461.836 23.219 419.656 27.7456C369.366 33.2391 317.025 32.9158 268.139 27.0174C209.275 19.9216 157.013 6.9964 97.4463 -3.7565C72.2937 -8.30015 45.5769 -13.7734 17.2531 -17.916C-46.3765 -27.236 -112.131 -31.7262 -173.08 -32.2285" stroke="white" stroke-miterlimit="10"/>
<path d="M1660.96 81.4745C1644.98 96.5446 1617.29 95.256 1597.5 99.5881C1542.78 111.552 1481.52 122.893 1425.93 112.447C1386.73 105.075 1359.06 84.8434 1327.8 64.0817C1297.06 43.6752 1266.59 20.4002 1233.15 0.918776C1199.7 -18.5626 1172.35 -48.6932 1136.19 -64.8194C1100.63 -80.6803 1055.35 -89.6319 1017.97 -94.1046C936.619 -103.832 881.989 -76.0435 796.64 -62.7947C791.01 -61.941 785.358 -61.1667 779.684 -60.4378C742.762 -55.7284 706.877 -51.88 674.96 -46.3683C624.223 -37.601 579.507 -25.4339 537.563 -4.40307C502.778 13.0412 464.744 21.934 422.304 26.3791C371.857 31.7808 319.507 32.3956 270.724 27.7075C212.446 22.0976 160.733 11.031 101.552 1.38925C76.5986 -2.67789 50.0267 -7.91246 21.8606 -11.9859C-41.3403 -21.1664 -106.783 -26.3432 -167.027 -27.2122" stroke="white" stroke-miterlimit="10"/>
<path d="M1665.09 73.95C1649.26 88.9084 1622.15 88.1676 1602.58 92.7502C1548.65 105.377 1488.19 117.154 1433.08 107.741C1394.28 101.108 1366.53 81.9491 1335.29 62.1937C1304.55 42.7365 1274.09 20.2415 1240.74 1.48433C1206.22 -17.9276 1178.71 -48.9299 1141.61 -64.9402C1105.32 -80.6042 1058.7 -89.0255 1020.68 -92.8144C938.924 -100.963 886.488 -69.3231 800.886 -55.6131C795.255 -54.7256 789.592 -53.94 783.907 -53.2225C746.974 -48.5358 710.914 -45.3107 678.958 -40.6471C628.018 -33.2153 583.15 -22.9485 540.779 -3.52647C505.815 12.5034 467.64 20.6941 424.929 25.0689C374.313 30.3674 321.978 31.9317 273.274 28.4424C215.593 24.3187 164.418 15.1218 105.623 6.59123C80.8805 3.0007 54.4421 -1.99531 26.4453 -6.01067C-36.3158 -15.0516 -101.447 -20.9265 -161.009 -22.151" stroke="white" stroke-miterlimit="10"/>
<path d="M1669.22 66.4142C1653.54 81.2722 1627.01 81.0678 1607.64 85.9009C1554.51 99.1792 1494.84 111.404 1440.23 103.024C1401.84 97.1296 1373.99 79.0548 1342.8 60.2831C1312.05 41.7753 1281.6 20.0829 1248.35 2.01612C1212.82 -17.2806 1185.07 -49.2005 1147.03 -65.095C1108.99 -80.9894 1062.05 -88.4641 1023.38 -91.5581C941.24 -98.1395 890.976 -62.6254 805.132 -48.4655C799.501 -47.5553 793.826 -46.7586 788.141 -46.0411C751.197 -41.3771 714.961 -38.7864 682.969 -34.9709C631.803 -28.8636 586.805 -20.4968 544.018 -2.69484C508.874 11.9205 470.559 19.4092 427.588 23.7139C376.815 28.9092 324.483 31.4004 275.869 29.1439C218.798 26.4837 168.137 19.1678 109.74 11.7484C85.1965 8.63441 58.9031 3.87707 31.064 -0.0803584C-31.2685 -8.97052 -96.0764 -15.5545 -154.945 -17.1459" stroke="white" stroke-miterlimit="10"/>
<path d="M1673.35 58.8896C1657.82 73.636 1631.88 73.9681 1612.71 79.0744C1560.37 93.004 1501.49 105.677 1447.37 98.3411C1409.38 93.1849 1381.44 76.183 1350.29 58.4177C1319.53 40.8706 1289.08 19.9805 1255.94 2.60421C1219.39 -16.5547 1191.41 -49.4148 1152.44 -65.2046C1113.46 -80.9945 1065.38 -87.8577 1026.07 -90.2567C943.534 -95.3045 895.463 -55.8938 809.366 -41.2727C803.724 -40.34 798.048 -39.5207 792.352 -38.8033C755.385 -34.1621 718.986 -32.2059 686.944 -29.2272C635.564 -24.4556 590.447 -17.9774 547.212 -1.80713C511.899 11.4052 473.42 18.1916 430.201 22.4149C379.26 27.507 326.764 34.3258 278.419 29.8903C222.173 24.7282 171.822 23.2586 113.811 16.9617C89.4667 14.3129 63.3181 9.80552 35.6483 5.90613C-26.2443 -2.84445 -90.752 -10.1152 -148.916 -12.0732" stroke="white" stroke-miterlimit="10"/>
<path d="M1677.48 51.3538C1662.1 65.9998 1636.74 66.8683 1617.78 72.2252C1566.24 86.7949 1508.15 99.927 1454.52 93.6242C1416.94 89.2063 1388.9 73.2886 1357.79 56.507C1327.02 39.9092 1296.55 19.8443 1263.54 3.13588C1225.97 -15.8739 1197.77 -49.6854 1157.84 -65.3595C1119.39 -80.4551 1068.72 -87.3078 1028.76 -89.0117C945.839 -92.5372 899.95 -49.2187 813.612 -34.1364C807.969 -33.1698 802.283 -32.3506 796.575 -31.6332C759.597 -27.0148 723.023 -25.6931 690.943 -23.5512C639.349 -20.1152 594.102 -15.5145 550.429 -0.975728C514.948 10.8335 476.317 16.9065 432.827 21.0596C381.728 26.0485 329.313 33.8739 280.97 30.5913C225.243 26.8016 175.508 27.3042 117.882 22.1185C93.7377 19.9462 67.7342 15.6775 40.2221 11.8473C-21.2419 3.23622 -85.4267 -4.73244 -142.909 -7.04598" stroke="white" stroke-miterlimit="10"/>
<path d="M1681.61 43.8293C1666.38 58.3636 1641.58 59.7685 1622.86 65.3873C1572.11 80.6085 1514.82 94.1885 1461.67 88.9186C1424.49 85.239 1396.35 70.4055 1365.29 54.619C1334.51 38.9705 1304.03 19.7532 1271.14 3.70151C1232.54 -15.148 1204.14 -49.9334 1163.28 -65.4803C1124.1 -80.3903 1071.92 -84.0577 1031.48 -87.7215C948.477 -95.2375 904.449 -42.487 817.869 -26.9547C812.226 -25.9656 806.528 -25.1238 800.809 -24.4179C763.809 -19.8223 727.059 -19.1351 694.953 -17.8411C643.145 -15.7521 597.79 -13.0061 553.668 -0.121553C518.029 10.296 479.235 15.6442 435.486 19.7271C384.229 24.6242 331.951 29.8512 283.565 31.3041C228.321 32.9667 179.238 31.3616 121.999 27.2982C98.0647 25.6026 72.2062 21.5725 44.8519 17.8003C-16.1721 9.34007 -80.0452 0.673418 -136.834 -2.00688" stroke="white" stroke-miterlimit="10"/>
<path d="M1685.73 36.2935C1670.66 50.7161 1646.45 52.6574 1627.92 58.538C1577.97 74.3993 1521.47 88.4273 1468.8 84.2016C1432.04 81.2491 1403.79 67.511 1372.78 52.7082C1341.77 37.9055 1311.48 19.6505 1278.73 4.2331C1239.09 -14.4337 1210.48 -50.2042 1168.69 -65.6351C1128.78 -80.3595 1075.31 -83.5299 1034.17 -86.4653C950.669 -92.426 908.937 -35.8006 822.104 -19.8185C816.449 -18.7955 810.752 -17.9538 805.021 -17.248C768.01 -12.675 731.085 -12.6224 698.93 -12.1653C646.896 -11.4233 601.433 -10.5319 556.862 0.709649C521.055 9.73545 482.109 14.3702 438.101 18.3603C386.675 23.1542 334.423 29.2743 286.116 31.9939C231.493 35.0636 182.913 35.3958 126.07 32.4437C102.336 31.2132 76.6223 27.4331 49.4259 23.7189C-11.1696 15.3981 -74.7309 6.03352 -130.815 2.99786" stroke="white" stroke-miterlimit="10"/>
<path d="M1689.86 28.7689C1674.94 43.0912 1651.31 45.569 1632.99 51.7115C1583.83 68.2015 1528.14 82.7001 1475.96 79.5074C1439.6 77.2931 1411.26 64.6393 1380.28 50.8316C1349.31 37.0238 1318.94 19.6045 1286.34 4.81006C1245.65 -13.6513 1216.85 -50.4409 1174.1 -65.7447C1133.48 -80.2835 1078.71 -82.9795 1036.89 -85.1637C952.883 -89.5578 913.446 -29.0688 826.36 -12.6255C820.706 -11.58 814.997 -10.7157 809.266 -10.0099C772.232 -5.45975 735.125 -5.32967 702.951 -6.42122C650.724 -8.21282 605.132 -7.97813 560.112 1.59786C524.148 9.25461 485.039 13.1418 440.759 17.0618C389.176 21.7525 336.939 28.7544 288.7 32.7405C234.686 37.2059 186.632 39.4756 130.175 37.6573C106.64 36.892 81.0713 33.3619 54.0441 29.7056C-6.1114 21.5245 -69.361 11.4619 -124.763 8.07069" stroke="white" stroke-miterlimit="10"/>
<path d="M1693.99 21.2444C1679.21 35.455 1656.17 38.4693 1638.06 44.8736C1589.7 61.9925 1534.8 76.9503 1483.11 74.8131C1447.16 73.326 1418.71 61.7675 1387.79 48.9436C1356.87 36.1197 1326.4 19.5472 1293.95 5.36447C1252.21 -12.869 1223.23 -50.7001 1179.54 -65.8767C1138.19 -80.2411 1082.11 -85.0964 1039.6 -83.8959C955.084 -81.4904 917.945 -22.3597 830.618 -5.46648C824.963 -4.38699 819.242 -3.52284 813.5 -2.81712C776.456 1.71032 739.18 0.471234 706.961 -0.733734C654.499 -2.697 608.82 -5.46965 563.34 2.44069C527.218 8.71708 487.935 11.8681 443.407 15.7179C391.655 20.3054 339.444 28.1666 291.284 33.4532C237.892 39.3031 190.346 44.1545 134.281 42.8257C110.959 42.2771 85.521 39.2455 58.6515 35.6585C-1.07546 27.6281 -64.002 16.8676 -118.711 13.1097" stroke="white" stroke-miterlimit="10"/>
<path d="M1698.12 13.7086C1683.5 27.8189 1661.02 31.3468 1643.14 38.0244C1595.56 55.772 1541.47 71.1892 1490.25 70.0962C1454.71 69.3361 1426.16 58.8845 1395.29 47.0442C1364.44 35.2156 1333.84 19.5011 1301.54 5.91872C1258.74 -12.0757 1229.59 -50.9594 1184.96 -66.0089C1142.89 -80.1876 1085.46 -84.5691 1042.3 -82.617C957.391 -78.7683 922.444 -15.6506 834.875 1.70387C829.208 2.80586 823.488 3.6926 817.734 4.38691C780.667 8.89155 743.228 7.00672 710.96 4.9762C658.272 1.65457 612.497 -2.92741 566.556 3.30598C530.277 8.2246 490.831 10.6281 446.044 14.3966C394.135 18.8809 341.927 27.6011 293.857 34.1771C241.075 41.4002 194.06 47.5787 138.375 48.0053C115.25 48.1818 89.9594 45.1402 63.2591 41.6112C3.97202 33.7205 -58.6542 22.2619 -112.658 18.1486" stroke="white" stroke-miterlimit="10"/>
<path d="M1702.25 6.18405C1687.78 20.1826 1665.88 24.247 1648.21 31.1866C1601.41 49.5628 1548.12 65.4393 1497.4 65.3906C1462.26 65.3575 1433.61 56.0013 1402.78 45.1449C1371.93 34.2769 1341.29 19.4549 1309.14 6.46168C1265.27 -11.271 1235.95 -51.2414 1190.36 -66.1524C1147.57 -80.1568 1088.79 -84.0644 1045 -81.3496C959.674 -76.069 926.931 -8.95288 839.109 8.86269C833.442 9.99859 827.71 10.8852 821.946 11.5794C784.868 16.0614 747.253 13.5307 714.947 10.6748C662.045 5.99486 616.161 -0.385256 569.772 4.14867C533.336 7.70953 493.727 9.35433 448.669 13.0525C396.591 17.4336 344.41 26.9905 296.407 34.8894C244.235 43.4744 197.745 51.6243 142.446 53.1846C119.52 53.8264 94.3746 51.0348 67.8321 47.5637C8.9736 39.8237 -53.3294 27.656 -106.651 23.1871" stroke="white" stroke-miterlimit="10"/>
<path d="M1706.38 -1.35176C1692.06 12.5464 1670.74 17.136 1653.27 24.3486C1607.27 43.3424 1554.78 59.6782 1504.53 60.6849C1469.81 61.3789 1441.05 53.1294 1410.27 43.2568C1379.4 33.3494 1348.73 19.4427 1316.74 7.02727C1271.8 -10.4211 1242.31 -51.4894 1195.78 -66.2733C1152.28 -80.1032 1092.13 -83.5371 1047.7 -80.0593C961.968 -73.3583 931.419 -2.22125 843.355 16.0443C837.688 17.2028 831.944 18.1119 826.168 18.806C789.068 23.2764 751.289 20.0887 718.945 16.396C665.83 10.3466 619.838 2.17963 572.989 5.02529C536.395 7.2397 496.622 8.11443 451.305 11.7424C399.069 16.0317 346.892 26.4024 298.979 35.6246C247.406 45.5487 201.453 55.6927 146.539 58.3755C123.825 59.4826 98.8124 56.9521 72.4392 53.5278C14.0206 45.9274 -47.9707 33.073 -100.599 28.2373" stroke="white" stroke-miterlimit="10"/>
<path d="M1710.51 -8.87629C1696.34 4.91031 1675.59 10.0249 1658.35 17.5107C1613.13 37.1219 1561.44 53.9283 1511.69 55.9794C1477.38 57.4004 1448.51 50.2576 1417.78 41.3575C1386.89 32.422 1356.18 19.4304 1324.35 7.57033C1278.32 -9.57136 1248.68 -51.7713 1201.2 -66.4167C1156.97 -80.0724 1095.47 -83.0437 1050.4 -78.7917C964.253 -70.6816 935.918 4.47654 847.601 23.1919C841.923 24.3729 836.179 25.2933 830.403 25.9875C793.291 30.4352 755.338 26.5903 722.956 22.0835C669.626 14.6644 623.514 4.73319 576.228 5.8569C539.477 6.73615 499.542 6.84082 453.965 10.3874C401.561 14.5734 349.399 25.7694 301.575 36.3261C250.601 47.578 205.184 59.7275 150.657 63.544C128.141 65.1163 103.274 62.8358 77.0585 59.4807C19.0685 52.0198 -42.6112 38.4674 -94.5353 33.2764" stroke="white" stroke-miterlimit="10"/>
<path d="M1714.64 -16.4121C1700.62 -2.73721 1680.45 2.91382 1663.42 10.6616C1618.98 30.8901 1568.11 48.156 1518.84 51.2738C1484.93 53.4218 1455.96 47.3859 1425.28 39.4695C1394.36 31.4945 1363.62 19.4408 1331.94 8.13592C1284.84 -8.67637 1255.04 -52.0306 1206.62 -66.5489C1161.68 -80.0301 1098.8 -82.539 1053.11 -77.5241C966.536 -68.0162 940.405 11.1742 851.847 30.3509C846.168 31.5658 840.413 32.4974 834.626 33.1801C797.492 37.605 759.374 33.1032 726.943 27.782C673.411 18.9935 627.152 5.2745 579.433 6.7108C542.533 7.82608 502.415 5.57811 456.579 9.05453C404.017 13.1374 351.848 25.1358 304.114 37.0384C253.739 49.6068 208.858 63.7617 154.716 68.712C132.401 70.7495 107.678 68.7189 81.6206 65.4218C24.0705 58.1118 -37.2974 43.8501 -88.5282 38.3036" stroke="white" stroke-miterlimit="10"/>
<path d="M1718.77 -23.9366C1704.9 -10.3622 1685.29 -4.19735 1668.49 3.82367C1624.84 24.6583 1574.77 42.3948 1525.99 46.5681C1492.49 49.432 1463.41 44.514 1432.78 37.5702C1401.86 30.5672 1371.06 19.4398 1339.55 8.67896C1291.36 -7.78142 1261.41 -52.3012 1212.06 -66.6923C1166.38 -79.9992 1102.14 -82.0569 1055.82 -76.2564C968.832 -65.3508 944.915 17.8721 856.115 37.51C850.425 38.7474 844.67 39.6903 838.871 40.3729C801.726 44.7751 763.433 39.6161 730.965 33.4696C677.219 23.3002 630.855 9.86281 582.673 7.54239C545.594 5.76254 505.334 4.29318 459.238 7.69945C406.507 11.6791 354.343 24.4574 306.71 37.7399C256.911 51.6133 212.578 67.785 158.833 73.8805C136.717 76.3832 112.139 74.6026 86.2506 71.3634C29.1291 64.1929 -31.9159 49.2447 -82.4647 43.3313" stroke="white" stroke-miterlimit="10"/>
<path d="M1722.91 -31.4724C1709.19 -18.0096 1690.16 -11.3197 1673.56 -3.01421C1630.69 18.4264 1581.44 36.6338 1533.13 41.8625C1500.03 45.4421 1470.86 41.6422 1440.28 35.6821C1409.33 29.651 1378.51 19.4728 1347.15 9.24454C1297.87 -6.84133 1267.77 -52.5605 1217.46 -66.8132C1171.06 -79.9458 1105.47 -81.5636 1058.51 -74.9663C971.093 -62.6856 949.403 24.6037 860.349 44.6914C854.659 45.9627 848.892 46.9169 843.083 47.5994C805.915 51.9788 767.459 46.1627 734.952 39.202C681.003 27.6519 634.508 12.484 585.889 8.4303C548.641 5.32649 508.23 3.07588 461.874 6.4007C408.986 10.2772 356.792 23.8352 309.283 38.4864C260.06 53.6535 216.286 71.8534 162.927 79.0826C141.022 82.0507 116.577 80.5199 90.8466 77.3387C34.1651 70.3078 -26.5796 54.6615 -76.4238 48.3927" stroke="white" stroke-miterlimit="10"/>
<path d="M1727.03 -38.9969C1713.47 -25.6344 1695.02 -18.4307 1678.64 -9.85207C1636.54 12.1946 1588.1 30.8613 1540.28 37.1569C1507.59 41.4636 1478.3 38.7817 1447.77 33.7828C1416.81 28.7235 1385.95 19.4944 1354.75 9.78752C1304.38 -5.88993 1274.13 -52.8538 1222.88 -66.9567C1175.77 -79.9261 1108.79 -81.093 1061.23 -73.6986C973.365 -60.0542 953.901 31.3016 864.606 51.8505C858.916 53.1444 853.138 54.1098 847.317 54.7922C810.138 59.1489 771.518 52.6758 738.95 44.9007C684.788 31.9697 638.161 15.0713 589.105 9.27301C551.677 4.85645 511.126 1.80208 464.499 5.04535C411.443 8.8186 359.23 23.145 311.833 39.1875C263.187 55.6483 219.972 75.8765 166.998 84.2507C145.292 87.684 120.993 86.4032 95.4311 83.2913C39.1781 76.4112 -21.2436 60.067 -70.3944 53.4315" stroke="white" stroke-miterlimit="10"/>
<path d="M1731.16 -46.5327C1717.75 -33.2819 1699.87 -25.5532 1683.71 -16.7013C1642.39 5.94012 1594.76 25.0888 1547.44 32.4401C1515.15 37.4624 1485.76 35.9099 1455.29 31.8836C1424.81 27.8573 1393.42 19.5276 1362.37 10.342C1310.89 -4.90455 1280.52 -53.1241 1228.32 -67.0887C1180.48 -79.8838 1112.12 -80.6109 1063.94 -72.4309C975.639 -57.4228 958.412 37.9994 868.864 59.0095C863.162 60.3372 857.383 61.3139 851.563 61.985C814.361 66.3189 775.577 59.1775 742.972 50.5882C688.607 36.2765 641.827 17.6586 592.345 10.1159C554.736 4.38658 514.045 0.528444 467.159 3.70156C413.945 7.38297 361.691 22.455 314.429 39.8889C267.166 57.3229 223.692 79.8998 171.115 89.4079C149.609 93.295 125.454 92.2755 100.05 89.2216C44.2372 82.481 -15.8728 65.4389 -64.3416 58.4478" stroke="white" stroke-miterlimit="10"/>
<path d="M1735.29 -54.0572C1722.03 -40.9068 1704.71 -32.6644 1688.78 -23.5391C1648.23 -0.303021 1601.41 19.3164 1554.58 27.7458C1522.71 33.4839 1493.22 33.0608 1462.78 29.9955C1432.34 26.9303 1400.86 19.5831 1369.96 10.8963C1317.39 -3.89675 1286.88 -53.3948 1233.74 -67.2209C1185.18 -79.8529 1115.43 -80.1404 1066.65 -71.152C977.888 -54.7916 962.91 44.7198 873.109 66.1798C867.407 67.5301 861.617 68.518 855.785 69.2003C818.572 73.5114 779.625 65.713 746.97 56.3095C692.414 40.6058 645.468 20.291 595.572 10.9926C557.783 3.95055 516.951 -0.70004 469.806 2.39163C416.423 5.9698 364.141 21.7876 317.012 40.6243C269.475 59.6268 227.411 83.9457 175.22 94.6102C153.913 98.9625 129.903 98.193 104.668 95.1971C49.2839 88.596 -10.5143 70.8559 -58.2785 63.5094" stroke="white" stroke-miterlimit="10"/>
<path d="M1739.42 -61.5931C1726.31 -48.5544 1709.55 -39.7869 1693.84 -30.3771C1654.06 -6.54639 1608.06 13.5438 1561.72 23.0401C1530.24 29.4939 1500.66 30.2001 1470.27 28.1073C1439.88 26.0146 1408.29 19.6499 1377.55 11.4504C1323.87 -2.85516 1293.23 -53.6768 1239.14 -67.3532C1189.87 -79.8221 1118.74 -79.6811 1069.34 -69.8732C980.116 -52.1607 967.386 51.4287 877.355 73.3387C871.652 74.7116 865.851 75.722 860.008 76.3929C822.773 80.6813 783.673 72.2146 750.969 62.0082C696.211 44.9123 649.099 22.9006 598.788 11.8353C560.807 3.49168 519.836 -1.97397 472.431 1.04754C418.891 4.52257 366.545 21.0858 319.562 41.3366C272.557 61.5986 231.085 87.9686 179.291 99.7782C158.184 104.596 134.318 104.076 109.242 101.138C54.2973 94.6881 -5.18916 76.2499 -52.2599 68.5254" stroke="white" stroke-miterlimit="10"/>
<path d="M1743.55 -69.1176C1730.59 -56.1905 1714.4 -46.9093 1698.92 -37.2149C1659.9 -12.7896 1614.72 7.77136 1568.87 18.3345C1537.79 25.4927 1508.11 27.3397 1477.77 26.2081C1447.43 25.0765 1415.76 19.7057 1385.16 12.0048C1330.38 -1.79073 1299.6 -53.9473 1244.56 -67.4853C1194.56 -79.7912 1122.05 -79.2219 1072.04 -68.5943C982.355 -49.5409 971.885 58.1379 881.601 80.509C875.887 81.9157 870.086 82.9261 864.231 83.5969C826.985 87.8625 787.721 78.7275 754.957 67.7067C700.007 49.2189 652.718 25.5102 602.005 12.6893C563.821 3.03275 522.733 -3.23645 475.068 -0.285081C421.359 3.08671 368.95 20.3727 322.136 42.0492C275.321 63.7258 234.783 91.9918 183.385 104.958C162.477 110.229 138.757 109.971 113.849 107.102C59.3335 100.792 0.170099 81.6557 -46.2187 73.5756" stroke="white" stroke-miterlimit="10"/>
<path d="M1747.68 -76.6534C1734.87 -63.8267 1719.25 -54.0318 1703.99 -44.0641C1665.72 -19.0556 1621.38 1.97627 1576.02 13.6177C1545.35 21.4915 1515.57 24.4679 1485.28 24.3088C1454.98 24.1497 1423.22 19.784 1392.77 12.5479C1336.9 -0.703648 1305.98 -54.2405 1250 -67.6287C1199.28 -79.7601 1125.36 -78.7739 1074.76 -67.3266C984.606 -46.9323 976.384 64.847 885.858 87.668C880.144 89.0973 874.331 90.1302 868.465 90.7896C831.197 95.0325 791.781 85.2292 758.967 73.4055C703.826 53.5257 656.348 28.1199 605.233 13.5321C566.857 2.57398 525.64 -4.49887 477.716 -1.62896C423.849 1.63969 371.355 19.6483 324.72 42.7619C278.085 65.8755 238.491 96.015 187.491 110.126C166.782 115.852 143.206 115.855 118.457 113.044C64.3807 106.873 5.51769 87.0386 -40.1666 78.6032" stroke="white" stroke-miterlimit="10"/>
<path d="M1751.81 -84.1779C1739.15 -71.4629 1724.09 -61.1544 1709.06 -50.902C1671.55 -25.3103 1628.03 -3.79629 1583.17 8.91207C1552.9 17.4903 1523.03 21.6188 1492.77 22.4094C1461.72 23.2269 1430.69 19.8511 1400.36 13.1021C1343.39 0.417174 1312.35 -54.6015 1255.42 -67.7608C1203.99 -79.8082 1128.67 -78.326 1077.46 -66.059C986.822 -44.3353 980.883 71.5448 890.104 94.827C884.389 96.2902 878.565 97.323 872.699 97.9936C835.42 102.214 795.84 91.7535 762.977 79.1155C707.645 57.8438 659.968 30.7521 608.461 14.3975C569.87 2.14894 528.547 -5.74998 480.353 -2.95032C426.317 0.215089 373.737 18.9463 327.281 43.4857C281.815 67.514 242.143 99.9586 191.573 115.317C171.053 121.462 147.633 121.76 123.053 119.008C69.4053 112.987 10.8654 92.4555 -34.1255 83.6533" stroke="white" stroke-miterlimit="10"/>
<path d="M1755.94 -91.7137C1743.44 -79.099 1728.93 -68.2882 1714.13 -57.74C1677.36 -31.565 1634.64 -9.64825 1590.31 4.21769C1560.41 13.4662 1530.48 18.8374 1500.27 20.5327C1469.21 22.3899 1438.15 19.9521 1407.96 13.6677C1349.89 1.58323 1318.71 -54.8495 1260.82 -67.8931C1208.67 -79.7549 1131.96 -77.8782 1080.15 -64.7802C989.027 -41.7385 985.37 78.2538 894.338 101.997C888.612 103.483 882.788 104.538 876.91 105.198C839.62 109.395 799.911 98.1988 766.953 84.814C711.476 62.049 663.553 33.3727 611.666 15.2402C572.86 1.68981 531.432 -7.02387 482.978 -4.29435C428.785 -1.22079 376.096 18.2102 329.843 44.1982C283.589 70.1862 245.829 104.004 195.656 120.485C175.335 127.107 152.06 127.644 127.637 124.949C74.4298 119.068 16.2016 97.8385 -28.1073 88.6807" stroke="white" stroke-miterlimit="10"/>
<path d="M1760.07 -99.2383C1747.71 -86.7353 1733.75 -75.4222 1719.2 -64.5778C1683.14 -37.8766 1641.3 -15.3981 1597.45 -0.487912C1567.97 9.48765 1537.93 15.9543 1507.76 18.6333C1476.69 21.4512 1445.62 20.0418 1415.56 14.222C1356.39 2.76063 1325.06 -55.0977 1266.24 -68.0252C1213.36 -79.7014 1135.26 -77.4417 1082.86 -63.5013C991.244 -39.1302 989.858 84.9741 898.595 109.167C892.869 110.687 887.033 111.742 881.145 112.402C843.832 116.576 803.959 104.746 770.963 90.5241C715.283 66.4009 667.125 36.1061 614.893 16.1055C575.85 1.33235 534.328 -8.2638 485.625 -5.61563C431.264 -2.64531 378.467 17.4855 332.427 44.9222C287.933 71.4346 249.548 108.061 199.761 125.676C179.64 132.763 156.509 133.55 132.256 130.925C79.4881 125.195 21.5604 103.255 -22.0439 93.7423" stroke="white" stroke-miterlimit="10"/>
<path d="M1764.2 -106.774C1681.06 -22.3087 1543.05 36.2662 1423.16 14.7649C1362.9 3.96064 1331.42 -55.3683 1271.65 -68.1688C1218.04 -79.6594 1138.54 -77.0167 1085.56 -62.2337C993.45 -36.5447 994.357 91.6718 902.841 116.315C860.883 127.614 813.235 113.656 774.962 96.2114C677.427 51.7627 602.937 -12.9937 488.262 -6.97091C433.743 -4.10373 380.816 16.738 334.989 45.6234C290.959 73.3832 253.234 112.096 203.844 130.833C140.662 154.804 46.6651 113.179 -16.0137 98.7584" stroke="white" stroke-miterlimit="10"/>
</g>
<g style="mix-blend-mode:multiply">
<rect width="1436" height="237" transform="translate(1436 237) rotate(180)" fill="url(#paint1_linear_141_4063)"/>
</g>
<g style="mix-blend-mode:multiply">
<rect width="1436" height="215" transform="translate(0 269)" fill="url(#paint2_linear_141_4063)"/>
</g>
</g>
<defs>
<linearGradient id="paint0_linear_141_4063" x1="-4.0001" y1="400" x2="6.81221" y2="-35.4842" gradientUnits="userSpaceOnUse">
<stop stop-color="#2095E4"/>
<stop offset="0.51" stop-color="#3EB7DD"/>
<stop offset="1" stop-color="#B0E2F8"/>
</linearGradient>
<linearGradient id="paint1_linear_141_4063" x1="718" y1="0" x2="718" y2="237" gradientUnits="userSpaceOnUse">
<stop stop-color="#3EC7F3" stop-opacity="0"/>
<stop offset="1" stop-color="#1B85E8"/>
</linearGradient>
<linearGradient id="paint2_linear_141_4063" x1="718" y1="0" x2="718" y2="215" gradientUnits="userSpaceOnUse">
<stop stop-color="#3EC7F3" stop-opacity="0"/>
<stop offset="1" stop-color="#1B85E8"/>
</linearGradient>
<clipPath id="clip0_141_4063">
<rect width="1440" height="400" fill="white"/>
</clipPath>
<clipPath id="clip1_141_4063">
<rect width="2010" height="344" fill="white" transform="translate(1761.89 194.879) rotate(-179.485)"/>
</clipPath>
</defs>
</svg>
